HIERARCHY
ROOT Hips
{
	OFFSET -3.958830 18.904000 13.208200
	CHANNELS 6 Xposition Yposition Zposition Zrotation Yrotation Xrotation 
	JOINT LHipJoint
	{
		OFFSET 0.000000 0.000000 0.000000
		CHANNELS 3 Zrotation Yrotation Xrotation
		JOINT LeftUpLeg
		{
			OFFSET 1.800000 -1.400000 0.085000
			CHANNELS 3 Zrotation Yrotation Xrotation
			JOINT LeftLeg
			{
				OFFSET 2.215000 -6.000000 0.000000
				CHANNELS 3 Zrotation Yrotation Xrotation
				JOINT LeftFoot
				{
					OFFSET 2.500000 -6.900000 0.000000
					CHANNELS 3 Zrotation Yrotation Xrotation
					JOINT LeftToeBase
					{
						OFFSET 0.200000 -0.500000 1.950000
						CHANNELS 3 Zrotation Yrotation Xrotation
						End Site
						{
							OFFSET 0.000000 0.000000 0.000000
						}
					}
				}
			}
		}
	}
	JOINT RHipJoint
	{
		OFFSET 0.000000 0.000000 0.000000
		CHANNELS 3 Zrotation Yrotation Xrotation
		JOINT RightUpLeg
		{
			OFFSET -1.800000 -1.400000 0.085000
			CHANNELS 3 Zrotation Yrotation Xrotation
			JOINT RightLeg
			{
				OFFSET -2.215000 -6.000000 0.000000
				CHANNELS 3 Zrotation Yrotation Xrotation
				JOINT RightFoot
				{
					OFFSET -2.500000 -6.900000 0.000000
					CHANNELS 3 Zrotation Yrotation Xrotation
					JOINT RightToeBase
					{
						OFFSET -0.200000 -0.500000 1.950000
						CHANNELS 3 Zrotation Yrotation Xrotation
						End Site
						{
							OFFSET 0.000000 0.000000 0.000000
						}
					}
				}
			}
		}
	}
	JOINT LowerBack
	{
		OFFSET 0.000000 0.000000 0.000000
		CHANNELS 3 Zrotation Yrotation Xrotation
		JOINT Spine
		{
			OFFSET -0.087000 1.940000 -0.288900
			CHANNELS 3 Zrotation Yrotation Xrotation
			JOINT Spine1
			{
				OFFSET 0.000000 1.950000 0.060000
				CHANNELS 3 Zrotation Yrotation Xrotation
				JOINT Neck
				{
					OFFSET 0.000000 0.000000 0.000000
					CHANNELS 3 Zrotation Yrotation Xrotation
					JOINT Neck1
					{
						OFFSET 0.000000 1.600000 0.340000
						CHANNELS 3 Zrotation Yrotation Xrotation
						JOINT Head
						{
							OFFSET 0.000000 1.667000 -0.240000
							CHANNELS 3 Zrotation Yrotation Xrotation
							End Site
							{
								OFFSET 0.000000 0.000000 0.000000
							}
						}
					}
				}
				JOINT LeftShoulder
				{
					OFFSET 0.000000 0.000000 0.000000
					CHANNELS 3 Zrotation Yrotation Xrotation
					JOINT LeftArm
					{
						OFFSET 2.700000 1.550000 -0.730000
						CHANNELS 3 Zrotation Yrotation Xrotation
						JOINT LeftForeArm
						{
							OFFSET 5.450000 0.000000 0.000000
							CHANNELS 3 Zrotation Yrotation Xrotation
							JOINT LeftHand
							{
								OFFSET 3.450000 0.000000 0.000000
								CHANNELS 3 Zrotation Yrotation Xrotation
								JOINT LeftHandIndex1
								{
									OFFSET 0.750000 0.000000 0.000000
									CHANNELS 3 Zrotation Yrotation Xrotation
									End Site
									{
										OFFSET 0.000000 0.000000 0.000000
									}
								}
							}
						}
					}
				}
				JOINT RightShoulder
				{
					OFFSET 0.000000 0.000000 0.000000
					CHANNELS 3 Zrotation Yrotation Xrotation
					JOINT RightArm
					{
						OFFSET -2.700000 1.550000 -0.730000
						CHANNELS 3 Zrotation Yrotation Xrotation
						JOINT RightForeArm
						{
							OFFSET -5.450000 0.000000 0.000000
							CHANNELS 3 Zrotation Yrotation Xrotation
							JOINT RightHand
							{
								OFFSET -3.450000 0.000000 0.000000
								CHANNELS 3 Zrotation Yrotation Xrotation
								JOINT RightHandIndex1
								{
									OFFSET -0.750000 0.000000 0.000000
									CHANNELS 3 Zrotation Yrotation Xrotation
									End Site
									{
										OFFSET 0.000000 0.000000 0.000000
									}
								}
							}
						}
					}
				}
			}
		}
	}
}
MOTION
Frames: 11
Frame Time: 0.016667
-0.378830 17.227100 -1.354730 27.204628 -31.581506 -33.685771 -16.253211 11.515667 7.222669 16.934812 9.172008 -74.585441 0.008697 15.016462 46.440937 0.799438 10.037742 0.865674 0.997160 0.805540 0.929730 17.928012 -8.872322 -0.124619 -28.897447 7.180037 0.243202 -0.621598 -5.099089 31.934314 -0.779165 -5.443685 2.236236 0.204230 -0.394410 0.379580 -1.122129 -5.398741 -9.090371 -22.938582 24.454752 59.718255 12.169527 14.544876 21.029504 0.730420 -14.300697 -16.097345 -23.138319 7.426928 29.441106 -3.602550 -1.096700 -28.563730 -2.794704 -21.282979 15.575582 -49.127899 20.597820 -25.810730 -95.205066 -22.443018 0.698716 -2.695061 3.648714 0.452160 -0.387030 0.565310 0.238700 1.597274 51.334695 2.436688 4.140580 27.899870 -23.784299 -127.632194 26.264312 -76.049548 2.677508 -1.714220 0.400500 -0.103640 -0.622330 0.021620 
-0.340930 17.236300 -1.324590 27.955578 -32.805571 -33.404846 -16.261903 11.433027 7.379293 17.501782 8.877242 -75.860573 1.996132 15.483754 51.399465 0.929323 10.570053 0.699928 1.020780 0.807900 0.966230 17.975237 -8.831156 -0.234085 -28.432482 7.616695 -2.729209 -1.620350 -4.580101 35.109169 -0.803081 -5.473280 2.203567 0.192780 -0.452150 0.404440 -1.110624 -5.327667 -9.212286 -23.447461 24.774794 59.597176 12.767573 14.020388 19.833573 0.696631 -14.384256 -16.931914 -24.119110 9.130053 30.821455 -5.977440 0.175020 -29.477510 -5.207276 -21.704584 15.057554 -49.208999 20.480279 -25.905952 -91.302994 -23.111218 1.205149 -2.706763 3.644878 0.499380 -0.415680 0.607470 0.235970 4.621914 51.175885 4.334461 7.611554 29.104098 -21.116778 -132.356245 28.628392 -89.872469 2.585299 -1.660428 0.413700 -0.139980 -0.637850 -0.003250 
-0.288600 17.224670 -1.235600 28.740117 -36.549073 -33.864315 -16.226573 11.242223 7.524260 19.049767 9.984218 -77.240764 8.275758 15.452822 62.243600 1.358563 11.622415 0.425345 1.029300 0.807610 0.996720 18.110207 -8.772800 -0.321903 -26.292994 8.741416 -6.636961 -3.970790 -3.184821 40.424545 -0.890949 -5.607528 2.155190 0.133880 -0.533500 0.419590 -1.152919 -4.932123 -9.453203 -23.318114 25.043171 60.081976 12.737619 13.862407 16.652735 0.990520 -14.785750 -18.415471 -26.642599 11.145740 33.202461 -7.836350 1.154760 -31.117350 -9.992529 -21.523357 13.599224 -50.468826 19.743670 -26.213011 -83.065619 -23.706222 1.483587 -2.703625 3.625253 0.528510 -0.490220 0.676390 0.230220 9.893235 49.963400 7.963182 12.622596 30.495234 -17.268255 -139.014789 32.959401 -112.724491 2.583975 -1.696433 0.472460 -0.189460 -0.668470 0.008190 
-0.219920 17.241160 -1.147980 27.921878 -39.074878 -33.159431 -16.121958 11.186433 7.472155 19.572732 8.776863 -75.077602 9.739529 16.113282 70.007643 1.691732 12.380945 0.234702 1.055600 0.847550 1.020070 18.204779 -8.793851 -0.062850 -23.375367 9.998369 -10.173813 -5.256633 -2.219970 45.492522 -1.047026 -5.914918 2.058719 0.104390 -0.628400 0.406200 -1.353700 -4.495894 -9.566799 -20.985547 23.399380 62.263851 11.830618 12.523323 14.074064 1.666211 -15.228397 -21.171299 -30.127220 13.159607 36.129137 -9.414810 1.211910 -33.690990 -13.874987 -23.676256 12.076806 -51.729130 17.373203 -26.975312 -71.960498 -22.061038 -0.836439 -2.661263 3.549874 0.578570 -0.591660 0.762480 0.231640 14.047727 50.181741 12.514063 17.151709 28.899565 -16.576741 -146.011899 36.989685 -138.661184 2.571405 -1.868952 0.523560 -0.196620 -0.698870 0.025650 
-0.155090 17.239050 -1.045360 24.968231 -40.234925 -30.325965 -16.083394 11.227866 7.357979 18.991695 5.812575 -72.802969 9.779047 16.426427 74.747685 1.929422 12.827692 0.109502 1.106450 0.885620 1.087220 18.211052 -8.659147 0.372946 -19.601550 10.907707 -13.260344 -5.464459 -2.166326 50.194456 -1.259686 -6.357866 1.908457 0.059970 -0.755640 0.431580 -1.447446 -4.426595 -9.657216 -17.993455 20.893267 63.309014 11.729126 10.857808 11.431949 2.400009 -14.273761 -23.312577 -31.499178 14.725763 41.754971 -11.303590 1.587030 -35.577630 -17.291739 -26.360128 10.992161 -53.236736 14.281369 -26.733751 -60.150555 -19.391731 -2.927156 -2.596555 3.509824 0.646850 -0.697180 0.873250 0.219750 17.098538 49.395700 16.059550 24.765210 25.739100 -17.155209 -151.686374 40.557883 -159.160138 2.589535 -1.952207 0.601660 -0.249450 -0.737240 0.023680 
-0.101510 17.181490 -0.937910 21.441112 -41.123636 -26.496102 -16.054817 11.218308 7.215500 18.918246 3.247186 -69.236033 6.430657 18.277968 75.836484 2.030912 13.187731 -0.014444 1.103510 0.899850 1.080140 18.200351 -8.468980 0.934641 -15.381214 11.750348 -16.434069 -5.624684 -2.487972 54.477723 -1.469240 -6.863904 1.766684 0.031500 -0.817640 0.420310 -1.608849 -4.309802 -9.705144 -15.058653 18.010474 62.625894 11.623427 9.510865 7.737538 2.361973 -12.811247 -23.520913 -32.595440 16.370460 47.651840 -12.327230 1.936730 -36.507980 -20.602275 -28.113000 10.309775 -53.628747 10.503137 -23.928618 -48.781321 -14.784769 -4.493334 -2.592118 3.410603 0.713850 -0.758170 0.938860 0.202670 20.682713 47.128633 17.229936 33.705998 19.550428 -18.540483 -158.585353 47.579105 -178.734083 2.613309 -1.920773 0.623610 -0.235940 -0.717410 0.017850 
-0.061660 17.117690 -0.812680 16.704801 -43.940576 -22.555840 -16.021038 11.288130 6.950972 20.010774 2.844119 -64.277603 2.834464 19.747167 74.109237 2.057916 13.236817 -0.040334 1.106860 0.866510 1.140270 18.205468 -8.256477 1.506793 -9.012736 12.487898 -17.855286 -6.616174 -2.076403 55.723910 -1.603876 -6.899149 1.788885 -0.019020 -0.883240 0.415480 -1.729565 -4.264299 -9.748170 -11.982003 15.250358 61.950325 10.706433 8.921427 2.985452 3.010597 -11.204080 -22.770800 -32.995196 17.575341 53.196429 -14.086390 3.000370 -36.767040 -25.997597 -28.293001 10.154301 -55.113103 9.654346 -21.091832 -35.906328 -12.061256 -4.243002 -2.550585 3.284160 0.791470 -0.814560 0.998290 0.182520 24.725712 44.417507 16.808749 40.191743 11.000834 -23.235860 -172.663193 59.498141 156.596742 2.568032 -1.790414 0.627420 -0.240710 -0.729480 -0.017550 
-0.030660 17.016400 -0.660210 10.882278 -46.352743 -16.879795 -16.023388 11.428486 6.711436 21.521732 2.401732 -59.088489 -1.706110 20.772734 69.767760 1.991072 12.950671 -0.005913 1.078060 0.800340 1.148340 18.168093 -8.038868 2.002352 -2.599417 12.234473 -18.502139 -7.058838 -1.991944 53.277471 -1.585462 -6.405199 1.960406 -0.086050 -0.952900 0.409160 -1.833952 -4.430046 -9.736527 -8.944587 11.844148 60.498162 9.798847 8.115101 -3.668659 4.025589 -9.833564 -21.036291 -34.214570 19.676747 56.854253 -15.174230 5.448890 -36.712110 -31.071709 -25.952871 9.785239 -58.656243 9.974442 -17.650247 -20.989316 -9.144665 -3.081783 -2.507407 3.207911 0.866840 -0.868760 1.027670 0.147000 27.739049 39.560214 14.920668 46.777443 2.847271 -29.350014 145.820771 70.325444 109.796956 2.876026 -0.921741 0.626010 -0.297970 -0.716620 -0.064170 
-0.006540 16.878080 -0.479080 3.213848 -48.294777 -9.887924 -16.026235 11.633489 6.329947 23.697642 2.425256 -52.496176 -6.251539 20.620587 62.609279 1.772192 12.244976 0.172184 1.023770 0.697580 1.135060 18.110284 -7.818373 2.615001 3.929426 12.400738 -18.629875 -6.636850 -2.571812 51.754382 -1.588929 -6.169257 2.065242 -0.137980 -0.933130 0.400450 -2.093146 -4.580046 -9.710401 -3.598005 6.306864 59.053262 5.578636 7.259552 -8.510902 5.744238 -8.726656 -18.862548 -34.942907 20.815676 57.602875 -16.087630 7.179450 -35.221780 -34.377872 -20.852388 7.384311 -59.048618 9.812129 -14.051202 -9.258117 -6.881356 -1.809841 -2.542400 3.117547 0.916780 -0.859420 1.007120 0.134770 27.137615 32.916216 13.487534 52.454804 -0.019357 -22.605358 88.666273 77.542468 47.096898 3.786545 -0.724325 0.574880 -0.297350 -0.686750 -0.102660 
0.008180 16.664420 -0.291050 -4.247775 -48.820801 -1.355825 -16.085444 11.523020 6.088821 25.902278 2.439517 -48.457232 -9.889283 20.115446 55.790176 1.659756 11.489718 0.393558 1.001620 0.673960 1.084060 18.051761 -7.486442 3.259326 8.666130 13.543669 -21.102889 -5.341707 -3.771175 52.669649 -1.630112 -6.370986 2.014705 -0.159860 -0.885530 0.397500 -2.507198 -4.537614 -9.738701 3.684550 0.140000 55.167163 0.575229 5.829075 -12.606834 6.647813 -9.434035 -16.100477 -37.383567 21.654112 53.114948 -13.375370 8.551680 -30.958130 -34.676643 -13.728688 4.323239 -60.138193 9.137090 -12.323860 -0.490807 -6.359851 -1.080637 -2.621935 3.185818 0.841890 -0.824420 0.947940 0.156320 24.763261 25.615158 11.230684 57.138897 -1.411325 -24.325865 50.191591 62.514736 18.214082 2.842721 -1.794156 0.592980 -0.353240 -0.698020 -0.074410 
0.003160 16.478510 -0.120000 -9.473445 -48.806562 6.054058 -16.095508 11.393613 5.855868 27.074535 2.317433 -45.347160 -13.110605 19.422103 48.820356 1.540470 10.752407 0.654416 0.958230 0.626500 1.015360 18.034281 -7.274753 3.780219 10.545429 15.055491 -24.574757 -3.381257 -5.196563 54.185622 -1.654699 -6.745033 1.933097 -0.176200 -0.777160 0.409060 -2.874904 -4.464800 -9.758532 9.877945 -3.668220 50.100364 -3.445967 4.301337 -15.373594 7.112441 -10.464611 -12.978326 -36.854929 20.850442 48.685928 -14.643700 10.651020 -26.135570 -36.537809 -6.772074 0.960995 -57.714089 8.924398 -11.477251 4.429461 -7.748885 -1.069051 -2.742962 3.223128 0.738470 -0.724280 0.860060 0.208420 24.436119 18.252818 8.271630 58.645056 -0.566981 -21.111587 29.905191 46.757137 6.292787 2.857254 -1.653778 0.582440 -0.374440 -0.700400 -0.040190 
